<svg viewBox="0 0 700 200" xmlns="http://www.w3.org/2000/svg">
<path d="M 73.100586 71.78711 L 73.100586 70.76172 Q 76.44043 69.79492 77.72949 68.95996 Q 79.018555 68.125 79.956055 66.41113 Q 80.893555 64.697266 80.893555 62.939453 Q 80.893555 60.507813 79.12109 58.76465 Q 77.34863 57.021484 74.711914 57.021484 Q 70.61035 57.021484 67.73926 61.35742 L 66.65527 60.976563 Q 68.76465 56.083984 72.06055 53.623047 Q 75.356445 51.16211 79.399414 51.16211 Q 83.53027 51.16211 86.21094 53.68164 Q 88.8916 56.20117 88.8916 59.570313 Q 88.8916 61.76758 87.646484 63.80371 Q 86.40137 65.83984 83.73535 67.39258 Q 87.163086 69.0625 88.96484 71.50879 Q 90.7666 73.95508 90.7666 77.646484 Q 90.7666 83.85742 86.26953 88.20801 Q 81.77246 92.55859 74.21387 92.55859 Q 69.174805 92.55859 66.86035 90.88867 Q 65.19043 89.7168 65.19043 87.87109 Q 65.19043 86.52344 66.15723 85.57129 Q 67.12402 84.61914 68.38379 84.61914 Q 69.350586 84.61914 70.200195 85.0293 Q 70.668945 85.26367 73.52539 87.59277 Q 76.381836 89.921875 78.87207 89.921875 Q 81.04004 89.921875 82.59277 88.20801 Q 84.14551 86.49414 84.14551 83.85742 Q 84.14551 79.84375 81.33301 76.45996 Q 78.52051 73.07617 73.100586 71.78711 Z M 143.76465 51.16211 L 143.76465 83.65234 Q 143.76465 87.31445 144.08691 88.325195 Q 144.40918 89.33594 145.43457 89.98047 Q 146.45996 90.625 148.71582 90.625 L 149.62402 90.625 L 149.62402 91.708984 L 128.70605 91.708984 L 128.70605 90.625 L 129.76074 90.625 Q 132.30957 90.625 133.39355 90.03906 Q 134.47754 89.453125 134.8584 88.427734 Q 135.23926 87.40234 135.23926 83.65234 L 135.23926 63.05664 Q 135.23926 60.302734 134.97559 59.614258 Q 134.71191 58.92578 133.99414 58.442383 Q 133.27637 57.958984 132.33887 57.958984 Q 130.84473 57.958984 128.70605 58.896484 L 128.17871 57.841797 L 142.79785 51.16211 L 143.76465 51.16211 Z M 182.23145 83.79883 Q 182.23145 85.58594 180.18066 88.53027 Q 178.12988 91.47461 175.37598 93.64258 Q 172.3291 96.04492 170.16113 96.04492 Q 167.58301 96.04492 164.62402 94.58008 Q 162.0459 93.32031 156.56738 89.541016 L 157.79785 87.72461 Q 160.43457 89.48242 162.0459 90.09766 Q 163.65723 90.71289 165.53223 90.71289 Q 167.55371 90.71289 169.5752 89.57031 Q 171.59668 88.427734 175.08301 85.322266 Q 179.94629 80.98633 179.94629 78.64258 Q 179.94629 77.4707 179.00879 75.56641 Q 177.9541 73.39844 176.43066 71.96289 L 178.07129 64.052734 Q 180.06348 66.103516 181.14746 68.76953 Q 182.23145 71.43555 182.23145 74.833984 L 182.23145 83.79883 Z M 194.91699 89.24805 Q 194.91699 90.6543 193.39355 91.94336 Q 190.75684 92.96875 184.89746 95.3125 Q 184.89746 94.052734 186.18652 92.88086 Q 188.61816 91.884766 194.91699 89.24805 Z M 194.91699 35.13672 Q 194.91699 36.484375 193.45215 37.74414 Q 190.75684 38.828125 184.89746 41.20117 Q 184.89746 39.882813 186.09863 38.740234 Q 188.61816 37.714844 194.91699 35.13672 Z M 198.81348 48.583984 L 195.29785 55.146484 L 188.44238 51.572266 L 191.9873 44.95117 L 198.81348 48.583984 Z M 201.68457 83.125 L 180.18066 83.125 L 180.18066 75.15625 L 185.4541 75.15625 Q 186.80176 75.15625 188.00293 75.27344 Q 191.22559 75.625 195.35645 76.06445 Q 190.99121 75.09766 189.24805 73.50098 Q 187.50488 71.9043 187.50488 68.85742 Q 187.50488 64.31641 189.59961 60.668945 Q 191.69434 57.021484 194.30176 57.021484 Q 197.26074 57.021484 199.47266 62.13379 Q 201.68457 67.24609 201.68457 74.48242 L 201.68457 83.125 Z M 197.7002 70.9668 Q 196.64551 68.447266 195.35645 67.041016 Q 194.06738 65.634766 192.77832 65.634766 Q 192.19238 65.634766 191.75293 66.015625 Q 191.31348 66.396484 191.31348 66.92383 Q 191.31348 68.18359 193.20313 69.37012 Q 195.09277 70.55664 197.7002 70.9668 Z M 222.89551 49.902344 Q 222.89551 51.25 221.43066 52.509766 Q 218.73535 53.59375 212.87598 55.966797 Q 212.87598 54.648438 214.07715 53.50586 Q 216.59668 52.48047 222.89551 49.902344 Z M 238.18848 83.125 Q 234.90723 83.125 232.73926 82.65625 Q 230.57129 82.1875 228.46191 81.16211 Q 226.7627 82.36328 225.42969 82.74414 Q 224.09668 83.125 221.43066 83.125 L 216.65527 83.125 Q 214.69238 83.125 213.5498 82.09961 Q 212.40723 81.07422 211.49902 78.70117 Q 209.8877 81.16211 207.89551 82.2168 Q 206.19629 83.125 203.82324 83.125 L 199.63379 83.125 L 199.63379 75.15625 L 203.82324 75.15625 Q 206.89941 75.15625 208.9502 73.427734 Q 211.61621 71.171875 211.61621 66.572266 L 213.5498 66.865234 Q 213.49121 67.802734 213.43262 69.00391 Q 213.37402 70.20508 213.37402 71.66992 Q 213.37402 73.16406 214.39941 74.16016 Q 215.4248 75.15625 216.74316 75.15625 L 220.34668 75.15625 Q 223.9209 75.15625 225.44434 74.16016 Q 227.29004 72.958984 227.29004 69.677734 Q 227.29004 68.97461 227.72949 68.41797 Q 227.99316 68.0957 228.81348 67.45117 L 229.92676 66.572266 Q 229.98535 67.12891 230.01465 68.081055 Q 230.04395 69.0332 230.04395 69.32617 Q 230.04395 70.9375 229.5752 73.603516 Q 230.65918 74.13086 232.00684 74.51172 Q 233.35449 74.89258 234.84863 75.09766 Q 234.84863 74.10156 234.11621 72.51953 Q 233.38379 70.9375 233.38379 70.38086 Q 233.38379 69.61914 233.58887 69.208984 Q 233.64746 69.0625 234.2334 68.30078 L 236.72363 64.93164 Q 237.51465 66.77734 237.85156 68.28613 Q 238.18848 69.79492 238.18848 72.05078 L 238.18848 83.125 Z M 252.48535 50.51758 Q 252.48535 52.333984 251.1377 53.76953 Q 249.79004 55.20508 247.82715 55.20508 Q 246.24512 55.20508 245.4541 54.32617 Q 244.66309 53.447266 244.66309 51.865234 Q 244.66309 49.609375 245.83496 47.86621 Q 247.00684 46.123047 248.73535 46.123047 Q 250.31738 46.123047 251.40137 47.441406 Q 252.48535 48.759766 252.48535 50.51758 Z M 250.72754 51.308594 Q 250.72754 50.48828 249.58496 49.492188 Q 248.44238 48.496094 247.65137 48.496094 Q 246.88965 48.496094 246.3623 49.155273 Q 245.83496 49.814453 245.83496 50.51758 Q 245.83496 51.54297 246.80176 51.953125 Q 247.56348 52.27539 248.99902 52.27539 Q 249.73145 52.27539 250.22949 52.070313 Q 250.72754 51.865234 250.72754 51.308594 Z M 263.09082 83.0957 Q 260.01465 83.0957 255.85449 81.89453 Q 252.19238 80.83984 249.40918 79.4043 Q 247.70996 81.953125 245.21973 82.74414 Q 244.01855 83.125 241.93848 83.125 L 236.1377 83.125 L 236.1377 75.15625 L 241.93848 75.15625 Q 244.5752 75.15625 246.12793 74.51172 Q 248.12012 73.69141 248.88184 71.66992 Q 250.55176 67.94922 253.15918 65.546875 Q 255.47363 63.408203 257.08496 63.408203 Q 258.5791 63.408203 260.77637 67.91992 Q 263.09082 72.69531 263.09082 76.708984 L 263.09082 83.0957 Z M 257.6123 74.24805 Q 257.6123 73.603516 256.35254 72.021484 Q 254.94629 70.26367 253.9209 70.26367 Q 252.77832 70.26367 251.9873 72.90039 Q 253.51074 73.48633 254.30176 73.7793 Q 256.6748 74.6582 256.96777 74.6582 Q 257.6123 74.6582 257.6123 74.24805 Z M 292.15332 83.125 L 288.05176 83.125 Q 284.62402 83.125 283.1006 80.3125 Q 281.40137 77.20703 281.40137 69.853516 L 281.40137 61.503906 Q 281.40137 58.66211 280.61035 57.08008 Q 280.2295 56.31836 278.85254 54.882813 L 282.0166 47.558594 Q 283.71582 49.902344 284.38965 52.1875 Q 285.18066 54.853516 285.18066 58.984375 L 285.18066 64.75586 Q 285.18066 70.87891 286.00098 73.25195 Q 286.6455 75.15625 288.05176 75.15625 L 292.15332 75.15625 L 292.15332 83.125 Z M 308.44238 83.125 L 290.10254 83.125 L 290.10254 75.15625 L 305.5127 75.15625 Q 305.19043 73.16406 304.34082 71.78711 Q 303.90137 71.02539 302.29004 69.15039 L 304.6338 62.177734 Q 306.83105 64.66797 307.63672 67.39258 Q 308.44238 70.11719 308.44238 75.478516 L 308.44238 83.125 Z M 307.97363 88.28125 L 304.75098 94.25781 L 300.59082 91.91406 L 298.24707 96.54297 L 292.79785 93.55469 L 295.84473 87.87109 L 300.18066 90.03906 L 302.6416 85.29297 L 307.97363 88.28125 Z M 322.4756 44.365234 L 318.95996 50.927734 L 312.1045 47.353516 L 315.8545 40.73242 L 322.4756 44.365234 Z M 326.72363 83.125 L 306.3916 83.125 L 306.3916 75.15625 L 323.96973 75.15625 Q 323.96973 72.60742 323.82324 71.52344 Q 323.58887 69.853516 322.85645 68.62305 Q 321.91895 70.43945 320.3369 71.40625 Q 318.75488 72.37305 316.96777 72.37305 Q 314.62402 72.37305 313.0127 70.82031 Q 311.40137 69.26758 311.40137 66.92383 Q 311.40137 63.466797 313.51074 58.720703 Q 315.8252 53.50586 318.19824 53.50586 Q 321.2744 53.50586 323.99902 58.867188 Q 326.72363 64.228516 326.72363 70.20508 L 326.72363 83.125 Z M 320.3662 63.408203 Q 319.5752 62.03125 318.9746 61.489258 Q 318.37402 60.947266 317.6709 60.947266 Q 316.792 60.947266 316.08887 61.73828 Q 315.38574 62.529297 315.38574 63.583984 Q 315.38574 64.25781 315.92773 64.711914 Q 316.46973 65.166016 317.31934 65.166016 Q 317.99316 65.166016 318.68164 64.77051 Q 319.37012 64.375 320.3662 63.408203 Z M 351.91895 38.945313 Q 351.91895 39.44336 351.83105 39.970703 Q 351.74316 40.498047 351.65527 41.02539 L 349.22363 39.560547 Q 347.7588 41.171875 347.23145 41.69922 Q 345.06348 43.808594 343.59863 43.808594 L 341.45996 43.808594 Q 343.0127 43.07617 345.09277 41.435547 Q 346.96777 39.941406 347.93457 38.79883 Q 347.02637 38.242188 346.55762 37.626953 Q 345.97168 36.865234 345.97168 35.95703 Q 345.97168 34.023438 347.0996 32.543945 Q 348.22754 31.064453 349.5459 31.064453 Q 350.30762 31.064453 350.92285 31.884766 Q 351.5381 32.70508 351.5381 33.876953 Q 351.5381 34.433594 351.37695 35.03418 Q 351.21582 35.634766 350.62988 37.246094 Q 351.09863 37.65625 351.59668 38.03711 Q 351.91895 38.359375 351.91895 38.945313 Z M 349.72168 35.634766 Q 349.72168 34.84375 349.16504 34.16992 Q 348.6084 33.496094 348.08105 33.496094 Q 347.7881 33.496094 347.62695 33.70117 Q 347.46582 33.90625 347.46582 34.11133 Q 347.46582 34.75586 348.19824 35.458984 L 349.4873 36.45508 Q 349.72168 35.86914 349.72168 35.634766 Z M 355.78613 83.125 L 351.68457 83.125 Q 348.25684 83.125 346.7334 80.3125 Q 345.03418 77.20703 345.03418 69.853516 L 345.03418 61.503906 Q 345.03418 58.66211 344.24316 57.08008 Q 343.8623 56.31836 342.48535 54.882813 L 345.6494 47.558594 Q 347.34863 49.902344 348.02246 52.1875 Q 348.81348 54.853516 348.81348 58.984375 L 348.81348 64.75586 Q 348.81348 70.87891 349.6338 73.25195 Q 350.27832 75.15625 351.68457 75.15625 L 355.78613 75.15625 L 355.78613 83.125 Z M 380.68848 83.0957 Q 377.6123 83.0957 373.45215 81.89453 Q 369.79004 80.83984 367.00684 79.4043 Q 365.30762 81.953125 362.81738 82.74414 Q 361.6162 83.125 359.53613 83.125 L 353.73535 83.125 L 353.73535 75.15625 L 359.53613 75.15625 Q 362.17285 75.15625 363.7256 74.51172 Q 365.71777 73.69141 366.4795 71.66992 Q 368.1494 67.94922 370.75684 65.546875 Q 373.0713 63.408203 374.68262 63.408203 Q 376.17676 63.408203 378.37402 67.91992 Q 380.68848 72.69531 380.68848 76.708984 L 380.68848 83.0957 Z M 375.20996 74.24805 Q 375.20996 73.603516 373.9502 72.021484 Q 372.54395 70.26367 371.51855 70.26367 Q 370.37598 70.26367 369.58496 72.90039 Q 371.1084 73.48633 371.8994 73.7793 Q 374.27246 74.6582 374.56543 74.6582 Q 375.20996 74.6582 375.20996 74.24805 Z M 391.792 100.29297 Q 391.792 101.69922 390.26855 102.98828 Q 387.63184 104.01367 381.77246 106.35742 Q 381.77246 105.09766 383.06152 103.92578 Q 385.49316 102.92969 391.792 100.29297 Z M 396.97754 83.125 L 378.6377 83.125 L 378.6377 75.15625 L 394.04785 75.15625 Q 393.7256 73.16406 392.87598 71.78711 Q 392.43652 71.02539 390.8252 69.15039 L 393.16895 62.177734 Q 395.3662 64.66797 396.17188 67.39258 Q 396.97754 70.11719 396.97754 75.478516 L 396.97754 83.125 Z M 396.5088 88.28125 L 393.28613 94.25781 L 389.12598 91.91406 L 386.78223 96.54297 L 381.333 93.55469 L 384.37988 87.87109 L 388.71582 90.03906 L 391.17676 85.29297 L 396.5088 88.28125 Z M 443.2666 83.125 L 412.2412 83.125 Q 410.16113 83.125 408.91602 82.08496 Q 407.6709 81.04492 406.792 78.70117 Q 404.917 81.30859 403.21777 82.24609 Q 401.66504 83.0957 399.1162 83.0957 L 394.92676 83.125 L 394.92676 75.15625 L 399.1162 75.12695 Q 402.51465 75.12695 404.27246 73.427734 Q 406.32324 71.43555 406.90918 66.572266 L 408.90137 66.865234 Q 408.81348 67.91992 408.78418 68.56445 Q 408.667 70.49805 408.667 71.66992 Q 408.667 73.33984 409.5459 74.24805 Q 410.4248 75.15625 411.86035 75.15625 Q 413.2959 75.15625 414.51172 74.57031 Q 415.72754 73.984375 418.33496 72.13867 L 428.82324 64.63867 Q 430.66895 63.320313 431.60645 62.76367 Q 433.74512 61.47461 435.7373 61.47461 Q 439.01855 61.47461 440.98145 63.789063 Q 443.2666 66.484375 443.2666 71.9043 L 443.2666 83.125 Z M 439.16504 72.16797 Q 439.16504 70.84961 437.08496 70.0293 Q 435.35645 69.35547 433.21777 69.35547 Q 431.28418 69.35547 428.8672 70.600586 Q 426.4502 71.8457 421.8506 75.15625 L 429.52637 75.15625 Q 439.16504 75.15625 439.16504 72.16797 Z M 452.14355 39.121094 Q 452.14355 40.9375 450.7959 42.373047 Q 449.44824 43.808594 447.48535 43.808594 Q 445.90332 43.808594 445.1123 42.929688 Q 444.3213 42.05078 444.3213 40.46875 Q 444.3213 38.21289 445.49316 36.469727 Q 446.66504 34.726563 448.39355 34.726563 Q 449.9756 34.726563 451.05957 36.04492 Q 452.14355 37.36328 452.14355 39.121094 Z M 450.38574 39.91211 Q 450.38574 39.091797 449.24316 38.095703 Q 448.1006 37.09961 447.30957 37.09961 Q 446.54785 37.09961 446.0205 37.75879 Q 445.49316 38.41797 445.49316 39.121094 Q 445.49316 40.146484 446.45996 40.55664 Q 447.22168 40.878906 448.65723 40.878906 Q 449.38965 40.878906 449.8877 40.67383 Q 450.38574 40.46875 450.38574 39.91211 Z M 457.3291 83.125 L 453.22754 83.125 Q 449.7998 83.125 448.27637 80.3125 Q 446.57715 77.20703 446.57715 69.853516 L 446.57715 61.503906 Q 446.57715 58.66211 445.78613 57.08008 Q 445.40527 56.31836 444.02832 54.882813 L 447.19238 47.558594 Q 448.8916 49.902344 449.56543 52.1875 Q 450.35645 54.853516 450.35645 58.984375 L 450.35645 64.75586 Q 450.35645 70.87891 451.17676 73.25195 Q 451.8213 75.15625 453.22754 75.15625 L 457.3291 75.15625 L 457.3291 83.125 Z M 482.23145 83.0957 Q 479.15527 83.0957 474.99512 81.89453 Q 471.333 80.83984 468.5498 79.4043 Q 466.8506 81.953125 464.36035 82.74414 Q 463.15918 83.125 461.0791 83.125 L 455.27832 83.125 L 455.27832 75.15625 L 461.0791 75.15625 Q 463.71582 75.15625 465.26855 74.51172 Q 467.26074 73.69141 468.02246 71.66992 Q 469.69238 67.94922 472.2998 65.546875 Q 474.61426 63.408203 476.2256 63.408203 Q 477.71973 63.408203 479.917 67.91992 Q 482.23145 72.69531 482.23145 76.708984 L 482.23145 83.0957 Z M 476.75293 74.24805 Q 476.75293 73.603516 475.49316 72.021484 Q 474.0869 70.26367 473.06152 70.26367 Q 471.91895 70.26367 471.12793 72.90039 Q 472.65137 73.48633 473.44238 73.7793 Q 475.81543 74.6582 476.1084 74.6582 Q 476.75293 74.6582 476.75293 74.24805 Z M 513.4619 43.164063 Q 513.4619 45.36133 512.7002 46.73828 Q 511.8506 48.291016 510.35645 48.291016 Q 509.8291 48.291016 509.38965 48.115234 Q 508.9502 47.939453 508.39355 47.558594 Q 507.80762 48.554688 507.25098 49.11133 Q 506.31348 50.04883 505.2881 50.04883 Q 504.05762 50.04883 503.44238 49.228516 Q 502.82715 48.408203 502.82715 46.94336 Q 502.82715 46.210938 503.06152 45.36133 Q 503.208 44.833984 503.61816 43.808594 L 504.2334 43.54492 Q 504.2334 43.808594 504.1748 44.335938 Q 504.1162 44.86328 504.1162 45.214844 Q 504.1162 45.859375 504.37988 46.342773 Q 504.64355 46.82617 505.1709 46.82617 Q 506.43066 46.82617 507.19238 45.214844 Q 507.54395 44.453125 508.0713 42.285156 L 508.68652 42.109375 Q 508.9209 43.54492 509.06738 43.867188 Q 509.41895 44.77539 510.23926 44.77539 Q 511.35254 44.77539 511.99707 43.310547 Q 512.5244 42.109375 512.5244 40.820313 L 513.13965 40.64453 Q 513.25684 41.20117 513.3594 41.918945 Q 513.4619 42.63672 513.4619 43.164063 Z M 513.02246 49.433594 Q 513.02246 50.810547 511.52832 52.128906 Q 508.8916 53.183594 503.00293 55.527344 Q 503.00293 54.26758 504.292 53.095703 Q 506.72363 52.070313 513.02246 49.433594 Z M 523.1885 83.79883 Q 523.1885 85.58594 521.1377 88.53027 Q 519.0869 91.47461 516.333 93.64258 Q 513.28613 96.04492 511.11816 96.04492 Q 508.54004 96.04492 505.58105 94.58008 Q 503.00293 93.32031 497.5244 89.541016 L 498.75488 87.72461 Q 501.3916 89.48242 503.00293 90.09766 Q 504.61426 90.71289 506.48926 90.71289 Q 508.51074 90.71289 510.53223 89.57031 Q 512.5537 88.427734 516.04004 85.322266 Q 520.9033 80.98633 520.9033 78.64258 Q 520.9033 77.4707 519.9658 75.56641 Q 518.91113 73.39844 517.3877 71.96289 L 519.0283 64.052734 Q 521.0205 66.103516 522.1045 68.76953 Q 523.1885 71.43555 523.1885 74.833984 L 523.1885 83.79883 Z M 534.292 99.61914 Q 534.292 101.02539 532.76855 102.31445 Q 530.13184 103.33984 524.27246 105.68359 Q 524.27246 104.42383 525.5615 103.25195 Q 527.99316 102.25586 534.292 99.61914 Z M 539.47754 83.125 L 521.1377 83.125 L 521.1377 75.15625 L 536.54785 75.15625 Q 536.2256 73.16406 535.376 71.78711 Q 534.9365 71.02539 533.3252 69.15039 L 535.66895 62.177734 Q 537.8662 64.66797 538.6719 67.39258 Q 539.47754 70.11719 539.47754 75.478516 L 539.47754 83.125 Z M 536.48926 89.30664 L 532.97363 95.86914 L 526.17676 92.177734 L 529.6924 85.49805 L 536.48926 89.30664 Z M 564.3799 83.0957 Q 561.3037 83.0957 557.14355 81.89453 Q 553.48145 80.83984 550.69824 79.4043 Q 548.999 81.953125 546.5088 82.74414 Q 545.3076 83.125 543.22754 83.125 L 537.42676 83.125 L 537.42676 75.15625 L 543.22754 75.15625 Q 545.86426 75.15625 547.417 74.51172 Q 549.4092 73.69141 550.1709 71.66992 Q 551.8408 67.94922 554.44824 65.546875 Q 556.7627 63.408203 558.374 63.408203 Q 559.86816 63.408203 562.0654 67.91992 Q 564.3799 72.69531 564.3799 76.708984 L 564.3799 83.0957 Z M 558.90137 74.24805 Q 558.90137 73.603516 557.6416 72.021484 Q 556.23535 70.26367 555.20996 70.26367 Q 554.0674 70.26367 553.27637 72.90039 Q 554.7998 73.48633 555.5908 73.7793 Q 557.96387 74.6582 558.25684 74.6582 Q 558.90137 74.6582 558.90137 74.24805 Z M 573.7256 64.66797 Q 573.7256 66.484375 572.3779 67.91992 Q 571.0303 69.35547 569.0674 69.35547 Q 567.48535 69.35547 566.69434 68.47656 Q 565.9033 67.59766 565.9033 66.015625 Q 565.9033 63.759766 567.0752 62.0166 Q 568.2471 60.273438 569.9756 60.273438 Q 571.5576 60.273438 572.6416 61.591797 Q 573.7256 62.910156 573.7256 64.66797 Z M 571.9678 65.458984 Q 571.9678 64.63867 570.8252 63.64258 Q 569.6826 62.646484 568.8916 62.646484 Q 568.1299 62.646484 567.60254 63.305664 Q 567.0752 63.964844 567.0752 64.66797 Q 567.0752 65.69336 568.042 66.103516 Q 568.8037 66.42578 570.23926 66.42578 Q 570.9717 66.42578 571.4697 66.2207 Q 571.9678 66.015625 571.9678 65.458984 Z M 593.4424 83.125 L 589.3408 83.125 Q 585.9131 83.125 584.38965 80.3125 Q 582.6904 77.20703 582.6904 69.853516 L 582.6904 61.503906 Q 582.6904 58.66211 581.8994 57.08008 Q 581.51855 56.31836 580.1416 54.882813 L 583.30566 47.558594 Q 585.0049 49.902344 585.6787 52.1875 Q 586.4697 54.853516 586.4697 58.984375 L 586.4697 64.75586 Q 586.4697 70.87891 587.29004 73.25195 Q 587.9346 75.15625 589.3408 75.15625 L 593.4424 75.15625 L 593.4424 83.125 Z M 608.85254 89.24805 Q 608.85254 90.6543 607.3291 91.94336 Q 604.6924 92.96875 598.833 95.3125 Q 598.833 94.052734 600.1221 92.88086 Q 602.5537 91.884766 608.85254 89.24805 Z M 618.3447 83.0957 Q 615.26855 83.0957 611.1084 81.89453 Q 607.4463 80.83984 604.6631 79.4043 Q 602.96387 81.953125 600.47363 82.74414 Q 599.27246 83.125 597.1924 83.125 L 591.3916 83.125 L 591.3916 75.15625 L 597.1924 75.15625 Q 599.8291 75.15625 601.38184 74.51172 Q 603.374 73.69141 604.13574 71.66992 Q 605.80566 67.94922 608.4131 65.546875 Q 610.72754 63.408203 612.33887 63.408203 Q 613.833 63.408203 616.0303 67.91992 Q 618.3447 72.69531 618.3447 76.708984 L 618.3447 83.0957 Z M 612.8662 74.24805 Q 612.8662 73.603516 611.60645 72.021484 Q 610.2002 70.26367 609.1748 70.26367 Q 608.0322 70.26367 607.2412 72.90039 Q 608.76465 73.48633 609.55566 73.7793 Q 611.9287 74.6582 612.2217 74.6582 Q 612.8662 74.6582 612.8662 74.24805 Z M 634.8096 51.220703 L 631.29395 57.783203 L 624.4385 54.208984 L 627.9834 47.58789 L 634.8096 51.220703 Z M 634.6338 83.125 L 616.29395 83.125 L 616.29395 75.15625 L 631.7041 75.15625 Q 631.38184 73.16406 630.5322 71.78711 Q 630.0928 71.02539 628.48145 69.15039 L 630.8252 62.177734 Q 633.02246 64.66797 633.8281 67.39258 Q 634.6338 70.11719 634.6338 75.478516 L 634.6338 83.125 Z M 143.76465 123.55469 L 143.76465 156.04492 Q 143.76465 159.70703 144.08691 160.71777 Q 144.40918 161.72852 145.43457 162.37305 Q 146.45996 163.01758 148.71582 163.01758 L 149.62402 163.01758 L 149.62402 164.10156 L 128.70605 164.10156 L 128.70605 163.01758 L 129.76074 163.01758 Q 132.30957 163.01758 133.39355 162.43164 Q 134.47754 161.8457 134.8584 160.82031 Q 135.23926 159.79492 135.23926 156.04492 L 135.23926 135.44922 Q 135.23926 132.69531 134.97559 132.00684 Q 134.71191 131.31836 133.99414 130.83496 Q 133.27637 130.35156 132.33887 130.35156 Q 130.84473 130.35156 128.70605 131.28906 L 128.17871 130.23438 L 142.79785 123.55469 L 143.76465 123.55469 Z M 179.06738 164.10156 L 155.68848 164.10156 L 155.68848 163.45703 Q 166.44043 150.6543 168.74023 146.23047 Q 171.04004 141.80664 171.04004 137.58789 Q 171.04004 134.51172 169.13574 132.47559 Q 167.23145 130.43945 164.47754 130.43945 Q 159.96582 130.43945 157.47559 134.95117 L 156.3916 134.57031 Q 157.97363 128.94531 161.19629 126.25 Q 164.41895 123.55469 168.6377 123.55469 Q 171.65527 123.55469 174.14551 124.96094 Q 176.63574 126.36719 178.04199 128.81348 Q 179.44824 131.25977 179.44824 133.39844 Q 179.44824 137.29492 177.28027 141.3086 Q 174.32129 146.72852 164.36035 156.42578 L 172.94434 156.42578 Q 176.1084 156.42578 177.06055 156.16211 Q 178.0127 155.89844 178.62793 155.26855 Q 179.24316 154.63867 180.23926 152.61719 L 181.29395 152.61719 L 179.06738 164.10156 Z M 193.10059 144.17969 L 193.10059 143.1543 Q 196.44043 142.1875 197.72949 141.35254 Q 199.01855 140.51758 199.95605 138.80371 Q 200.89355 137.08984 200.89355 135.33203 Q 200.89355 132.90039 199.1211 131.15723 Q 197.34863 129.41406 194.71191 129.41406 Q 190.61035 129.41406 187.73926 133.75 L 186.65527 133.36914 Q 188.76465 128.47656 192.06055 126.015625 Q 195.35645 123.55469 199.39941 123.55469 Q 203.53027 123.55469 206.21094 126.07422 Q 208.8916 128.59375 208.8916 131.96289 Q 208.8916 134.16016 207.64648 136.19629 Q 206.40137 138.23242 203.73535 139.78516 Q 207.16309 141.45508 208.96484 143.90137 Q 210.7666 146.34766 210.7666 150.03906 Q 210.7666 156.25 206.26953 160.60059 Q 201.77246 164.95117 194.21387 164.95117 Q 189.1748 164.95117 186.86035 163.28125 Q 185.19043 162.10938 185.19043 160.26367 Q 185.19043 158.91602 186.15723 157.96387 Q 187.12402 157.01172 188.38379 157.01172 Q 189.35059 157.01172 190.2002 157.42188 Q 190.66895 157.65625 193.52539 159.98535 Q 196.38184 162.31445 198.87207 162.31445 Q 201.04004 162.31445 202.59277 160.60059 Q 204.14551 158.88672 204.14551 156.25 Q 204.14551 152.23633 201.33301 148.85254 Q 198.52051 145.46875 193.10059 144.17969 Z M 255.88379 163.86719 L 243.6084 150.36133 L 256.03027 136.94336 L 258.13965 136.94336 L 251.25488 150.36133 L 258.13965 163.86719 L 255.88379 163.86719 Z M 242.6709 163.86719 L 230.27832 150.36133 L 242.6709 136.94336 L 244.98535 136.94336 L 237.9834 150.21484 L 244.98535 163.86719 L 242.6709 163.86719 Z M 290.71777 126.66016 L 290.71777 142.97852 L 291.86035 142.97852 Q 294.49707 142.97852 296.167 142.1875 Q 297.8369 141.39648 298.99414 139.52148 Q 300.15137 137.64648 300.50293 134.45313 L 301.52832 134.45313 L 301.52832 154.4043 L 300.50293 154.4043 Q 299.9463 148.75 297.4707 146.94824 Q 294.99512 145.14648 291.86035 145.14648 L 290.71777 145.14648 L 290.71777 157.30469 Q 290.71777 160.35156 291.0547 161.11328 Q 291.3916 161.875 292.37305 162.44629 Q 293.3545 163.01758 295.0244 163.01758 L 296.34277 163.01758 L 296.34277 164.10156 L 275.5713 164.10156 L 275.5713 163.01758 L 276.88965 163.01758 Q 278.61816 163.01758 279.67285 162.40234 Q 280.43457 161.99219 280.84473 160.9961 Q 281.167 160.29297 281.167 157.30469 L 281.167 131.17188 Q 281.167 128.125 280.84473 127.36328 Q 280.52246 126.60156 279.54102 126.03027 Q 278.55957 125.458984 276.88965 125.458984 L 275.5713 125.458984 L 275.5713 124.375 L 309.0869 124.375 L 309.0869 135.77148 L 307.88574 135.77148 Q 307.4756 131.75781 305.79102 129.82422 Q 304.10645 127.890625 300.9131 127.09961 Q 299.15527 126.66016 294.40918 126.66016 L 290.71777 126.66016 Z M 353.88184 154.78516 Q 353.88184 159.29688 349.19434 162.7832 Q 344.50684 166.26953 338.50098 166.26953 Q 333.4912 166.26953 330.66406 163.73535 Q 327.8369 161.20117 327.8369 156.66016 Q 327.8369 152.41211 328.8916 149.24805 Q 330.09277 145.67383 333.5791 140.48828 L 335.3955 141.71875 Q 333.11035 145.14648 332.14355 147.66602 Q 331.17676 150.18555 331.17676 152.67578 Q 331.17676 155.3418 333.1543 156.79199 Q 335.13184 158.24219 338.73535 158.24219 Q 343.8916 158.24219 347.11426 156.25 Q 350.3369 154.25781 350.3369 151.03516 Q 350.3369 150.47852 350.3369 150.15625 Q 350.3369 149.83398 350.3369 149.6582 Q 350.3369 148.51563 350.14648 147.13867 Q 349.95605 145.76172 349.16504 141.45508 Q 347.90527 134.51172 346.6455 127.53906 L 345.18066 126.484375 Q 345.18066 123.61328 347.87598 117.69531 L 349.22363 118.33984 Q 349.10645 118.75 349.10645 119.27734 Q 349.10645 120.44922 350.30762 121.18164 Q 352.09473 122.177734 353.67676 123.08594 Q 353.3545 125.60547 353.03223 126.68945 Q 352.70996 127.77344 351.68457 129.9414 L 350.80566 129.58984 Q 350.80566 130.0293 351.64063 134.58496 Q 352.4756 139.14063 353.06152 142.45117 Q 353.88184 147.19727 353.88184 148.22266 L 353.88184 154.78516 Z M 370.1709 155.51758 L 351.83105 155.51758 L 351.83105 147.54883 L 367.2412 147.54883 Q 366.91895 145.55664 366.06934 144.17969 Q 365.62988 143.41797 364.01855 141.54297 L 366.3623 134.57031 Q 368.55957 137.06055 369.36523 139.78516 Q 370.1709 142.50977 370.1709 147.8711 L 370.1709 155.51758 Z M 369.70215 160.67383 L 366.4795 166.65039 L 362.31934 164.30664 L 359.9756 168.93555 L 354.52637 165.94727 L 357.57324 160.26367 L 361.90918 162.43164 L 364.37012 157.68555 L 369.70215 160.67383 Z M 368.12012 155.51758 L 368.12012 147.54883 L 373.1006 147.54883 Q 376.26465 147.54883 377.87598 147.40234 Q 380.3955 147.16797 381.74316 146.49414 Q 383.3252 145.70313 383.3252 144.15039 Q 383.3252 143.35938 382.3291 142.1875 Q 381.333 141.01563 380.13184 140.3711 L 379.10645 141.39648 Q 376.8506 139.25781 376.29395 138.64258 Q 374.65332 136.79688 374.65332 134.6582 Q 374.65332 131.69922 375.06348 130.49805 Q 375.6494 128.79883 377.5537 127.48047 Q 379.16504 126.36719 381.88965 125.13672 Q 384.0869 124.140625 387.22168 122.93945 Q 390.03418 121.884766 392.87598 120.80078 L 392.87598 127.77344 L 389.7412 128.74023 Q 386.1377 129.88281 383.85254 130.76172 Q 380.68848 131.99219 380.68848 132.49023 Q 380.65918 132.92969 380.65918 133.10547 Q 380.65918 133.7793 381.2744 134.48242 Q 382.09473 135.41992 384.70215 137.4707 Q 386.60645 138.99414 390.03418 142.2461 Q 392.93457 145.0293 394.37012 146.02539 Q 396.5381 147.54883 398.47168 147.54883 L 402.69043 147.54883 L 402.69043 155.51758 L 398.70605 155.51758 Q 396.5088 155.51758 393.81348 153.61328 Q 391.6162 152.06055 389.30176 149.51172 Q 388.0713 148.16406 386.0791 145.58594 Q 386.0791 150.47852 382.85645 152.91016 Q 379.3994 155.51758 371.81152 155.51758 L 368.12012 155.51758 Z M 430.1123 120.478516 L 427.18262 126.572266 L 421.6748 123.64258 L 424.6631 117.666016 L 430.1123 120.478516 Z M 435.7959 127.421875 L 432.57324 133.39844 L 428.4131 131.05469 L 425.86426 135.6836 L 420.62012 132.69531 L 423.667 127.01172 L 428.00293 129.17969 L 430.46387 124.43359 L 435.7959 127.421875 Z M 439.19434 155.51758 Q 435.9131 155.51758 433.74512 155.04883 Q 431.57715 154.58008 429.46777 153.55469 Q 427.76855 154.75586 426.43555 155.13672 Q 425.10254 155.51758 422.43652 155.51758 L 417.66113 155.51758 Q 415.69824 155.51758 414.55566 154.49219 Q 413.4131 153.4668 412.50488 151.09375 Q 410.89355 153.55469 408.90137 154.60938 Q 407.20215 155.51758 404.8291 155.51758 L 400.63965 155.51758 L 400.63965 147.54883 L 404.8291 147.54883 Q 407.90527 147.54883 409.95605 145.82031 Q 412.62207 143.56445 412.62207 138.96484 L 414.55566 139.25781 Q 414.49707 140.19531 414.43848 141.39648 Q 414.37988 142.59766 414.37988 144.0625 Q 414.37988 145.55664 415.40527 146.55273 Q 416.43066 147.54883 417.74902 147.54883 L 421.35254 147.54883 Q 424.92676 147.54883 426.4502 146.55273 Q 428.2959 145.35156 428.2959 142.07031 Q 428.2959 141.36719 428.73535 140.81055 Q 428.99902 140.48828 429.81934 139.84375 L 430.93262 138.96484 Q 430.9912 139.52148 431.0205 140.47363 Q 431.0498 141.42578 431.0498 141.71875 Q 431.0498 143.33008 430.58105 145.9961 Q 431.66504 146.52344 433.0127 146.9043 Q 434.36035 147.28516 435.8545 147.49023 Q 435.8545 146.49414 435.12207 144.91211 Q 434.38965 143.33008 434.38965 142.77344 Q 434.38965 142.01172 434.59473 141.60156 Q 434.65332 141.45508 435.23926 140.69336 L 437.7295 137.32422 Q 438.5205 139.16992 438.85742 140.67871 Q 439.19434 142.1875 439.19434 144.44336 L 439.19434 155.51758 Z M 455.01465 124.19922 L 451.792 130.17578 L 447.63184 127.83203 L 445.2881 132.46094 L 439.83887 129.47266 L 442.88574 123.78906 L 447.22168 125.95703 L 449.68262 121.21094 L 455.01465 124.19922 Z M 455.4834 155.51758 L 437.14355 155.51758 L 437.14355 147.54883 L 452.5537 147.54883 Q 452.23145 145.55664 451.38184 144.17969 Q 450.94238 143.41797 449.33105 141.54297 L 451.6748 134.57031 Q 453.87207 137.06055 454.67773 139.78516 Q 455.4834 142.50977 455.4834 147.8711 L 455.4834 155.51758 Z"/>
</svg>